<mxfile host="65bd71144e" scale="1.2" border="0">
    <diagram id="Aivqml-ADPJbA_GyeIOO" name="Page-1">
        <mxGraphModel dx="1118" dy="470" grid="1" gridSize="10" guides="1" tooltips="1" connect="1" arrows="1" fold="1" page="1" pageScale="1" pageWidth="827" pageHeight="1169" background="#FFFFFF" math="0" shadow="0">
            <root>
                <mxCell id="0"/>
                <mxCell id="1" parent="0"/>
                <mxCell id="689" value="" style="edgeStyle=orthogonalEdgeStyle;rounded=0;orthogonalLoop=1;jettySize=auto;html=1;fillColor=#FFFFFF;strokeColor=#000000;fontColor=#000000;labelBackgroundColor=none;" edge="1" parent="1" source="690" target="692">
                    <mxGeometry relative="1" as="geometry"/>
                </mxCell>
                <mxCell id="690" value="start" style="ellipse;whiteSpace=wrap;html=1;fillColor=#E6FFCC;fontSize=11;strokeColor=#000000;fontColor=#000000;rounded=0;labelBackgroundColor=none;endArrow=classic;" vertex="1" parent="1">
                    <mxGeometry x="110" y="110" width="80" height="40" as="geometry"/>
                </mxCell>
                <mxCell id="691" value="" style="edgeStyle=orthogonalEdgeStyle;rounded=0;orthogonalLoop=1;jettySize=auto;html=1;fillColor=#FFFFFF;strokeColor=#000000;fontColor=#000000;labelBackgroundColor=none;" edge="1" parent="1" source="692" target="694">
                    <mxGeometry relative="1" as="geometry"/>
                </mxCell>
                <mxCell id="692" value="city = [.......]" style="whiteSpace=wrap;html=1;fontSize=11;fillColor=#FFFFFF;strokeColor=#000000;fontColor=#000000;rounded=0;labelBackgroundColor=none;endArrow=classic;" vertex="1" parent="1">
                    <mxGeometry x="90" y="180" width="120" height="30" as="geometry"/>
                </mxCell>
                <mxCell id="693" value="" style="edgeStyle=orthogonalEdgeStyle;rounded=0;orthogonalLoop=1;jettySize=auto;html=1;fillColor=#FFFFFF;strokeColor=#000000;fontColor=#000000;labelBackgroundColor=none;" edge="1" parent="1" source="694" target="696">
                    <mxGeometry relative="1" as="geometry"/>
                </mxCell>
                <mxCell id="694" value="maxValue = GetMaxValue(city)" style="shape=process;whiteSpace=wrap;html=1;backgroundOutline=1;size=0.05;fillColor=#CCE5FF;fontSize=11;strokeColor=#000000;fontColor=#000000;rounded=0;labelBackgroundColor=none;endArrow=classic;" vertex="1" parent="1">
                    <mxGeometry x="50" y="240" width="200" height="40" as="geometry"/>
                </mxCell>
                <mxCell id="695" value="" style="edgeStyle=orthogonalEdgeStyle;rounded=0;orthogonalLoop=1;jettySize=auto;html=1;fillColor=#FFFFFF;strokeColor=#000000;fontColor=#000000;labelBackgroundColor=none;" edge="1" parent="1" source="696" target="698">
                    <mxGeometry relative="1" as="geometry"/>
                </mxCell>
                <mxCell id="696" value="waterVolume = GetWaterVolume(city, maxValue)" style="shape=process;whiteSpace=wrap;html=1;backgroundOutline=1;size=0.05;fillColor=#CCE5FF;fontSize=11;strokeColor=#000000;fontColor=#000000;rounded=0;labelBackgroundColor=none;endArrow=classic;" vertex="1" parent="1">
                    <mxGeometry x="40" y="320" width="220" height="40" as="geometry"/>
                </mxCell>
                <mxCell id="697" value="" style="edgeStyle=orthogonalEdgeStyle;rounded=0;orthogonalLoop=1;jettySize=auto;html=1;exitX=0.502;exitY=0.834;exitDx=0;exitDy=0;exitPerimeter=0;fillColor=#FFFFFF;strokeColor=#000000;fontColor=#000000;labelBackgroundColor=none;" edge="1" parent="1" source="698" target="699">
                    <mxGeometry relative="1" as="geometry"/>
                </mxCell>
                <mxCell id="698" value="&lt;span style=&quot;&quot;&gt;waterVolume&amp;nbsp;&lt;/span&gt;" style="shape=document;whiteSpace=wrap;html=1;boundedLbl=1;fillColor=#FFFFCC;fontSize=11;strokeColor=#000000;fontColor=#000000;rounded=0;labelBackgroundColor=none;endArrow=classic;" vertex="1" parent="1">
                    <mxGeometry x="90" y="390" width="120" height="50" as="geometry"/>
                </mxCell>
                <mxCell id="699" value="end" style="ellipse;whiteSpace=wrap;html=1;fillColor=#FFCCCC;fontSize=11;strokeColor=#000000;fontColor=#000000;rounded=0;labelBackgroundColor=none;endArrow=classic;" vertex="1" parent="1">
                    <mxGeometry x="110" y="460" width="80" height="40" as="geometry"/>
                </mxCell>
                <mxCell id="700" value="" style="edgeStyle=orthogonalEdgeStyle;rounded=0;orthogonalLoop=1;jettySize=auto;html=1;fillColor=#FFFFFF;strokeColor=#000000;fontColor=#000000;labelBackgroundColor=none;" edge="1" parent="1" source="701" target="703">
                    <mxGeometry relative="1" as="geometry"/>
                </mxCell>
                <mxCell id="701" value="start" style="ellipse;whiteSpace=wrap;html=1;fillColor=#E6FFCC;fontSize=11;strokeColor=#000000;fontColor=#000000;rounded=0;labelBackgroundColor=none;endArrow=classic;" vertex="1" parent="1">
                    <mxGeometry x="370" y="110" width="80" height="40" as="geometry"/>
                </mxCell>
                <mxCell id="702" value="" style="edgeStyle=orthogonalEdgeStyle;rounded=0;orthogonalLoop=1;jettySize=auto;html=1;fillColor=#FFFFFF;strokeColor=#000000;fontColor=#000000;labelBackgroundColor=none;" edge="1" parent="1" source="703" target="713">
                    <mxGeometry relative="1" as="geometry"/>
                </mxCell>
                <mxCell id="703" value="arr[]" style="shape=parallelogram;perimeter=parallelogramPerimeter;whiteSpace=wrap;html=1;fixedSize=1;fillColor=#FFFFCC;fontSize=11;strokeColor=#000000;fontColor=#000000;rounded=0;labelBackgroundColor=none;endArrow=classic;" vertex="1" parent="1">
                    <mxGeometry x="350" y="180" width="120" height="30" as="geometry"/>
                </mxCell>
                <mxCell id="704" value="" style="edgeStyle=orthogonalEdgeStyle;rounded=0;orthogonalLoop=1;jettySize=auto;html=1;fillColor=#FFFFFF;strokeColor=#000000;fontColor=#000000;labelBackgroundColor=none;" edge="1" parent="1" source="706" target="711">
                    <mxGeometry relative="1" as="geometry"/>
                </mxCell>
                <mxCell id="705" style="edgeStyle=orthogonalEdgeStyle;rounded=0;orthogonalLoop=1;jettySize=auto;html=1;exitX=1;exitY=0.5;exitDx=0;exitDy=0;endArrow=classic;endFill=1;entryX=0.5;entryY=0;entryDx=0;entryDy=0;fillColor=#FFFFFF;strokeColor=#000000;fontColor=#000000;labelBackgroundColor=none;" edge="1" parent="1" source="706" target="717">
                    <mxGeometry relative="1" as="geometry">
                        <mxPoint x="540" y="350" as="targetPoint"/>
                        <Array as="points">
                            <mxPoint x="550" y="318"/>
                        </Array>
                    </mxGeometry>
                </mxCell>
                <mxCell id="706" value="i = 1, arr.length - 1, 1" style="shape=hexagon;perimeter=hexagonPerimeter2;whiteSpace=wrap;html=1;fixedSize=1;fillColor=#FFFFFF;fontSize=11;strokeColor=#000000;fontColor=#000000;rounded=0;labelBackgroundColor=none;endArrow=classic;" vertex="1" parent="1">
                    <mxGeometry x="340" y="300" width="140" height="35" as="geometry"/>
                </mxCell>
                <mxCell id="707" value="" style="edgeStyle=orthogonalEdgeStyle;rounded=0;orthogonalLoop=1;jettySize=auto;html=1;fillColor=#FFFFFF;strokeColor=#000000;fontColor=#000000;labelBackgroundColor=none;" edge="1" parent="1" source="711" target="715">
                    <mxGeometry relative="1" as="geometry"/>
                </mxCell>
                <mxCell id="708" value="YES" style="edgeLabel;html=1;align=center;verticalAlign=middle;resizable=0;points=[];fontColor=#000000;labelBackgroundColor=#FFFFFF;" vertex="1" connectable="0" parent="707">
                    <mxGeometry x="-0.7956" y="1" relative="1" as="geometry">
                        <mxPoint x="-1" y="5" as="offset"/>
                    </mxGeometry>
                </mxCell>
                <mxCell id="709" style="edgeStyle=orthogonalEdgeStyle;rounded=0;orthogonalLoop=1;jettySize=auto;html=1;exitX=1;exitY=0.5;exitDx=0;exitDy=0;endArrow=oval;endFill=1;fillColor=#FFFFFF;strokeColor=#000000;fontColor=#000000;labelBackgroundColor=none;" edge="1" parent="1" source="711">
                    <mxGeometry relative="1" as="geometry">
                        <mxPoint x="410" y="510" as="targetPoint"/>
                        <Array as="points">
                            <mxPoint x="500" y="395"/>
                            <mxPoint x="500" y="510"/>
                        </Array>
                    </mxGeometry>
                </mxCell>
                <mxCell id="710" value="NO" style="edgeLabel;html=1;align=center;verticalAlign=middle;resizable=0;points=[];fontColor=#000000;labelBackgroundColor=#FFFFFF;" vertex="1" connectable="0" parent="709">
                    <mxGeometry x="-0.8424" relative="1" as="geometry">
                        <mxPoint x="-7" as="offset"/>
                    </mxGeometry>
                </mxCell>
                <mxCell id="711" value="arr[i] &amp;gt; maxValue" style="rhombus;whiteSpace=wrap;html=1;fontSize=11;fillColor=#FFFFFF;strokeColor=#000000;fontColor=#000000;rounded=0;labelBackgroundColor=none;endArrow=classic;" vertex="1" parent="1">
                    <mxGeometry x="350" y="370" width="120" height="50" as="geometry"/>
                </mxCell>
                <mxCell id="712" value="" style="edgeStyle=orthogonalEdgeStyle;rounded=0;orthogonalLoop=1;jettySize=auto;html=1;fillColor=#FFFFFF;strokeColor=#000000;fontColor=#000000;labelBackgroundColor=none;" edge="1" parent="1" source="713">
                    <mxGeometry relative="1" as="geometry">
                        <mxPoint x="410" y="300" as="targetPoint"/>
                    </mxGeometry>
                </mxCell>
                <mxCell id="713" value="maxValue = arr[0]" style="whiteSpace=wrap;html=1;fillColor=#FFFFFF;fontSize=11;strokeColor=#000000;fontColor=#000000;rounded=0;labelBackgroundColor=none;endArrow=classic;" vertex="1" parent="1">
                    <mxGeometry x="350" y="240" width="120" height="30" as="geometry"/>
                </mxCell>
                <mxCell id="714" style="edgeStyle=orthogonalEdgeStyle;rounded=0;orthogonalLoop=1;jettySize=auto;html=1;exitX=0.5;exitY=1;exitDx=0;exitDy=0;entryX=0;entryY=0.5;entryDx=0;entryDy=0;fillColor=#FFFFFF;strokeColor=#000000;fontColor=#000000;labelBackgroundColor=none;" edge="1" parent="1" source="715" target="706">
                    <mxGeometry relative="1" as="geometry">
                        <Array as="points">
                            <mxPoint x="410" y="510"/>
                            <mxPoint x="320" y="510"/>
                            <mxPoint x="320" y="317"/>
                        </Array>
                    </mxGeometry>
                </mxCell>
                <mxCell id="715" value="maxValue = arr[i]" style="whiteSpace=wrap;html=1;fontSize=11;fillColor=#FFFFFF;strokeColor=#000000;fontColor=#000000;rounded=0;labelBackgroundColor=none;endArrow=classic;" vertex="1" parent="1">
                    <mxGeometry x="350" y="450" width="120" height="35" as="geometry"/>
                </mxCell>
                <mxCell id="716" value="" style="edgeStyle=orthogonalEdgeStyle;rounded=0;orthogonalLoop=1;jettySize=auto;html=1;endArrow=classic;endFill=1;fillColor=#FFFFFF;strokeColor=#000000;fontColor=#000000;labelBackgroundColor=none;" edge="1" parent="1" source="717" target="718">
                    <mxGeometry relative="1" as="geometry"/>
                </mxCell>
                <mxCell id="717" value="maxValue" style="shape=parallelogram;perimeter=parallelogramPerimeter;whiteSpace=wrap;html=1;fixedSize=1;fillColor=#FFFFCC;fontSize=11;strokeColor=#000000;fontColor=#000000;rounded=0;labelBackgroundColor=none;endArrow=classic;" vertex="1" parent="1">
                    <mxGeometry x="490" y="340" width="120" height="30" as="geometry"/>
                </mxCell>
                <mxCell id="718" value="end" style="ellipse;whiteSpace=wrap;html=1;fillColor=#FFCCCC;fontSize=11;strokeColor=#000000;fontColor=#000000;rounded=0;labelBackgroundColor=none;endArrow=classic;" vertex="1" parent="1">
                    <mxGeometry x="510" y="395" width="80" height="40" as="geometry"/>
                </mxCell>
                <mxCell id="719" value="GetMaxValue" style="shape=process;whiteSpace=wrap;html=1;backgroundOutline=1;size=0.05;fillColor=#CCE5FF;fontSize=11;strokeColor=#000000;fontColor=#000000;rounded=0;labelBackgroundColor=none;endArrow=classic;" vertex="1" parent="1">
                    <mxGeometry x="300" y="60" width="200" height="30" as="geometry"/>
                </mxCell>
                <mxCell id="720" value="GetWaterVolume" style="shape=process;whiteSpace=wrap;html=1;backgroundOutline=1;size=0.05;fillColor=#CCE5FF;fontSize=11;strokeColor=#000000;fontColor=#000000;rounded=0;labelBackgroundColor=none;endArrow=classic;" vertex="1" parent="1">
                    <mxGeometry x="730" y="60" width="200" height="30" as="geometry"/>
                </mxCell>
                <mxCell id="721" value="" style="edgeStyle=orthogonalEdgeStyle;rounded=0;orthogonalLoop=1;jettySize=auto;html=1;endArrow=classic;endFill=1;fillColor=#FFFFFF;strokeColor=#000000;fontColor=#000000;labelBackgroundColor=none;" edge="1" parent="1" source="722" target="724">
                    <mxGeometry relative="1" as="geometry"/>
                </mxCell>
                <mxCell id="722" value="start" style="ellipse;whiteSpace=wrap;html=1;fillColor=#E6FFCC;fontSize=11;strokeColor=#000000;fontColor=#000000;rounded=0;labelBackgroundColor=none;endArrow=classic;" vertex="1" parent="1">
                    <mxGeometry x="790" y="120" width="80" height="40" as="geometry"/>
                </mxCell>
                <mxCell id="723" value="" style="edgeStyle=orthogonalEdgeStyle;rounded=0;orthogonalLoop=1;jettySize=auto;html=1;endArrow=classic;endFill=1;fillColor=#FFFFFF;strokeColor=#000000;fontColor=#000000;labelBackgroundColor=none;" edge="1" parent="1" source="724" target="726">
                    <mxGeometry relative="1" as="geometry"/>
                </mxCell>
                <mxCell id="724" value="arr[]&lt;br&gt;max" style="shape=parallelogram;perimeter=parallelogramPerimeter;whiteSpace=wrap;html=1;fixedSize=1;fillColor=#FFFFCC;fontSize=11;strokeColor=#000000;fontColor=#000000;rounded=0;labelBackgroundColor=none;endArrow=classic;" vertex="1" parent="1">
                    <mxGeometry x="770" y="190" width="120" height="30" as="geometry"/>
                </mxCell>
                <mxCell id="725" value="" style="edgeStyle=orthogonalEdgeStyle;rounded=0;orthogonalLoop=1;jettySize=auto;html=1;endArrow=classic;endFill=1;fillColor=#FFFFFF;strokeColor=#000000;fontColor=#000000;labelBackgroundColor=none;" edge="1" parent="1" source="726" target="729">
                    <mxGeometry relative="1" as="geometry"/>
                </mxCell>
                <mxCell id="726" value="sumTotal = 0" style="whiteSpace=wrap;html=1;fillColor=#FFFFFF;fontSize=11;strokeColor=#000000;fontColor=#000000;rounded=0;labelBackgroundColor=none;endArrow=classic;" vertex="1" parent="1">
                    <mxGeometry x="770" y="245" width="120" height="25" as="geometry"/>
                </mxCell>
                <mxCell id="727" value="" style="edgeStyle=orthogonalEdgeStyle;rounded=0;orthogonalLoop=1;jettySize=auto;html=1;endArrow=classic;endFill=1;fillColor=#FFFFFF;strokeColor=#000000;fontColor=#000000;labelBackgroundColor=none;" edge="1" parent="1" source="729" target="731">
                    <mxGeometry relative="1" as="geometry"/>
                </mxCell>
                <mxCell id="728" style="edgeStyle=orthogonalEdgeStyle;rounded=0;orthogonalLoop=1;jettySize=auto;html=1;exitX=1;exitY=0.5;exitDx=0;exitDy=0;endArrow=classic;endFill=1;entryX=0.5;entryY=0;entryDx=0;entryDy=0;fillColor=#FFFFFF;strokeColor=#000000;fontColor=#000000;labelBackgroundColor=none;" edge="1" parent="1" source="729" target="760">
                    <mxGeometry relative="1" as="geometry">
                        <mxPoint x="1040" y="370" as="targetPoint"/>
                    </mxGeometry>
                </mxCell>
                <mxCell id="729" value="i = 1, maxValue, 1" style="shape=hexagon;perimeter=hexagonPerimeter2;whiteSpace=wrap;html=1;fixedSize=1;fontSize=11;fillColor=#FFFFFF;strokeColor=#000000;fontColor=#000000;rounded=0;labelBackgroundColor=none;endArrow=classic;" vertex="1" parent="1">
                    <mxGeometry x="770" y="302.5" width="120" height="37.5" as="geometry"/>
                </mxCell>
                <mxCell id="730" value="" style="edgeStyle=orthogonalEdgeStyle;rounded=0;orthogonalLoop=1;jettySize=auto;html=1;endArrow=classic;endFill=1;fillColor=#FFFFFF;strokeColor=#000000;fontColor=#000000;labelBackgroundColor=none;" edge="1" parent="1" source="731" target="734">
                    <mxGeometry relative="1" as="geometry"/>
                </mxCell>
                <mxCell id="731" value="jStart = 0&lt;br&gt;jEnd = 0&lt;br&gt;n = 0&lt;br&gt;sumLine = 0" style="whiteSpace=wrap;html=1;fontSize=11;fillColor=#FFFFFF;strokeColor=#000000;fontColor=#000000;rounded=0;labelBackgroundColor=none;endArrow=classic;" vertex="1" parent="1">
                    <mxGeometry x="770" y="365" width="120" height="60" as="geometry"/>
                </mxCell>
                <mxCell id="732" value="" style="edgeStyle=orthogonalEdgeStyle;rounded=0;orthogonalLoop=1;jettySize=auto;html=1;endArrow=classic;endFill=1;fillColor=#FFFFFF;strokeColor=#000000;fontColor=#000000;labelBackgroundColor=none;" edge="1" parent="1" source="734" target="738">
                    <mxGeometry relative="1" as="geometry"/>
                </mxCell>
                <mxCell id="733" style="edgeStyle=orthogonalEdgeStyle;rounded=0;orthogonalLoop=1;jettySize=auto;html=1;exitX=1;exitY=0.5;exitDx=0;exitDy=0;entryX=0.5;entryY=0;entryDx=0;entryDy=0;endArrow=classic;endFill=1;fillColor=#FFFFFF;strokeColor=#000000;fontColor=#000000;labelBackgroundColor=none;" edge="1" parent="1" source="734" target="754">
                    <mxGeometry relative="1" as="geometry">
                        <Array as="points">
                            <mxPoint x="1020" y="479"/>
                            <mxPoint x="1020" y="790"/>
                            <mxPoint x="830" y="790"/>
                        </Array>
                    </mxGeometry>
                </mxCell>
                <mxCell id="734" value="j = 0, arr.lenght - 1, 1" style="shape=hexagon;perimeter=hexagonPerimeter2;whiteSpace=wrap;html=1;fixedSize=1;fontSize=11;fillColor=#FFFFFF;strokeColor=#000000;fontColor=#000000;rounded=0;labelBackgroundColor=none;endArrow=classic;" vertex="1" parent="1">
                    <mxGeometry x="750" y="460" width="160" height="37.5" as="geometry"/>
                </mxCell>
                <mxCell id="735" value="" style="edgeStyle=orthogonalEdgeStyle;rounded=0;orthogonalLoop=1;jettySize=auto;html=1;endArrow=classic;endFill=1;fillColor=#FFFFFF;strokeColor=#000000;fontColor=#000000;labelBackgroundColor=none;" edge="1" parent="1" source="738" target="743">
                    <mxGeometry relative="1" as="geometry"/>
                </mxCell>
                <mxCell id="736" value="YES" style="edgeLabel;html=1;align=center;verticalAlign=middle;resizable=0;points=[];fontColor=#000000;labelBackgroundColor=#FFFFFF;" vertex="1" connectable="0" parent="735">
                    <mxGeometry x="-0.7115" y="-1" relative="1" as="geometry">
                        <mxPoint x="1" y="9" as="offset"/>
                    </mxGeometry>
                </mxCell>
                <mxCell id="737" style="edgeStyle=orthogonalEdgeStyle;rounded=0;orthogonalLoop=1;jettySize=auto;html=1;exitX=1;exitY=0.5;exitDx=0;exitDy=0;endArrow=oval;endFill=1;fillColor=#FFFFFF;strokeColor=#000000;fontColor=#000000;labelBackgroundColor=none;" edge="1" parent="1" source="738">
                    <mxGeometry relative="1" as="geometry">
                        <mxPoint x="830" y="780" as="targetPoint"/>
                        <Array as="points">
                            <mxPoint x="1000" y="563"/>
                            <mxPoint x="1000" y="780"/>
                            <mxPoint x="830" y="780"/>
                        </Array>
                    </mxGeometry>
                </mxCell>
                <mxCell id="765" value="NO" style="edgeLabel;html=1;align=center;verticalAlign=middle;resizable=0;points=[];fontColor=#000000;labelBackgroundColor=#FFFFFF;" vertex="1" connectable="0" parent="737">
                    <mxGeometry x="-0.9067" y="1" relative="1" as="geometry">
                        <mxPoint x="-2" y="1" as="offset"/>
                    </mxGeometry>
                </mxCell>
                <mxCell id="738" value="arr[j]&amp;nbsp;&lt;span class=&quot;ILfuVd&quot;&gt;≥&amp;nbsp; i&lt;/span&gt;" style="rhombus;whiteSpace=wrap;html=1;fontSize=11;fillColor=#FFFFFF;strokeColor=#000000;fontColor=#000000;rounded=0;labelBackgroundColor=none;endArrow=classic;" vertex="1" parent="1">
                    <mxGeometry x="760" y="541" width="140" height="43.75" as="geometry"/>
                </mxCell>
                <mxCell id="739" value="" style="edgeStyle=orthogonalEdgeStyle;rounded=0;orthogonalLoop=1;jettySize=auto;html=1;endArrow=classic;endFill=1;exitX=0;exitY=0.5;exitDx=0;exitDy=0;fillColor=#FFFFFF;strokeColor=#000000;fontColor=#000000;labelBackgroundColor=none;" edge="1" parent="1" source="743" target="745">
                    <mxGeometry relative="1" as="geometry"/>
                </mxCell>
                <mxCell id="740" value="YES" style="edgeLabel;html=1;align=center;verticalAlign=middle;resizable=0;points=[];fontColor=#000000;labelBackgroundColor=#FFFFFF;" vertex="1" connectable="0" parent="739">
                    <mxGeometry x="-0.6625" y="1" relative="1" as="geometry">
                        <mxPoint x="-5" y="-1" as="offset"/>
                    </mxGeometry>
                </mxCell>
                <mxCell id="743" value="n = 0" style="rhombus;whiteSpace=wrap;html=1;fontSize=11;fillColor=#FFFFFF;strokeColor=#000000;fontColor=#000000;rounded=0;labelBackgroundColor=none;endArrow=classic;" vertex="1" parent="1">
                    <mxGeometry x="760" y="620" width="140" height="43.75" as="geometry"/>
                </mxCell>
                <mxCell id="744" style="edgeStyle=orthogonalEdgeStyle;rounded=0;orthogonalLoop=1;jettySize=auto;html=1;endArrow=oval;endFill=1;exitX=0.5;exitY=1;exitDx=0;exitDy=0;fillColor=#FFFFFF;strokeColor=#000000;fontColor=#000000;labelBackgroundColor=none;" edge="1" parent="1" source="745">
                    <mxGeometry relative="1" as="geometry">
                        <mxPoint x="830" y="720" as="targetPoint"/>
                        <Array as="points">
                            <mxPoint x="730" y="720"/>
                        </Array>
                    </mxGeometry>
                </mxCell>
                <mxCell id="745" value="jStart = j" style="whiteSpace=wrap;html=1;fontSize=11;fillColor=#FFFFFF;strokeColor=#000000;fontColor=#000000;rounded=0;labelBackgroundColor=none;endArrow=classic;" vertex="1" parent="1">
                    <mxGeometry x="670" y="670" width="120" height="24.38" as="geometry"/>
                </mxCell>
                <mxCell id="746" style="edgeStyle=orthogonalEdgeStyle;rounded=0;orthogonalLoop=1;jettySize=auto;html=1;exitX=0.5;exitY=1;exitDx=0;exitDy=0;entryX=0.5;entryY=0;entryDx=0;entryDy=0;endArrow=classic;endFill=1;fillColor=#FFFFFF;strokeColor=#000000;fontColor=#000000;labelBackgroundColor=none;" edge="1" parent="1" source="747" target="749">
                    <mxGeometry relative="1" as="geometry">
                        <Array as="points">
                            <mxPoint x="930" y="720"/>
                            <mxPoint x="830" y="720"/>
                        </Array>
                    </mxGeometry>
                </mxCell>
                <mxCell id="747" value="jend = j" style="whiteSpace=wrap;html=1;fontSize=11;fillColor=#FFFFFF;strokeColor=#000000;fontColor=#000000;rounded=0;labelBackgroundColor=none;endArrow=classic;" vertex="1" parent="1">
                    <mxGeometry x="870" y="670" width="120" height="24.38" as="geometry"/>
                </mxCell>
                <mxCell id="748" style="edgeStyle=orthogonalEdgeStyle;rounded=0;orthogonalLoop=1;jettySize=auto;html=1;exitX=0.5;exitY=1;exitDx=0;exitDy=0;endArrow=classic;endFill=1;entryX=0;entryY=0.5;entryDx=0;entryDy=0;fillColor=#FFFFFF;strokeColor=#000000;fontColor=#000000;labelBackgroundColor=none;" edge="1" parent="1" source="749" target="734">
                    <mxGeometry relative="1" as="geometry">
                        <mxPoint x="660" y="650" as="targetPoint"/>
                        <Array as="points">
                            <mxPoint x="830" y="780"/>
                            <mxPoint x="650" y="780"/>
                            <mxPoint x="650" y="479"/>
                        </Array>
                    </mxGeometry>
                </mxCell>
                <mxCell id="749" value="n = n+1" style="rounded=0;whiteSpace=wrap;html=1;fillColor=#FFFFFF;fontSize=11;strokeColor=#000000;fontColor=#000000;labelBackgroundColor=none;endArrow=classic;" vertex="1" parent="1">
                    <mxGeometry x="790" y="740" width="80" height="20" as="geometry"/>
                </mxCell>
                <mxCell id="750" value="" style="edgeStyle=orthogonalEdgeStyle;rounded=0;orthogonalLoop=1;jettySize=auto;html=1;endArrow=classic;endFill=1;fillColor=#FFFFFF;strokeColor=#000000;fontColor=#000000;labelBackgroundColor=none;" edge="1" parent="1" source="754" target="756">
                    <mxGeometry relative="1" as="geometry"/>
                </mxCell>
                <mxCell id="751" value="YES" style="edgeLabel;html=1;align=center;verticalAlign=middle;resizable=0;points=[];fontColor=#000000;labelBackgroundColor=#FFFFFF;" vertex="1" connectable="0" parent="750">
                    <mxGeometry x="-0.8178" y="-1" relative="1" as="geometry">
                        <mxPoint x="1" y="6" as="offset"/>
                    </mxGeometry>
                </mxCell>
                <mxCell id="752" style="edgeStyle=orthogonalEdgeStyle;rounded=0;orthogonalLoop=1;jettySize=auto;html=1;exitX=1;exitY=0.5;exitDx=0;exitDy=0;endArrow=oval;endFill=1;fillColor=#FFFFFF;strokeColor=#000000;fontColor=#000000;labelBackgroundColor=none;" edge="1" parent="1" source="754">
                    <mxGeometry relative="1" as="geometry">
                        <mxPoint x="830" y="950" as="targetPoint"/>
                        <Array as="points">
                            <mxPoint x="940" y="830"/>
                            <mxPoint x="940" y="950"/>
                        </Array>
                    </mxGeometry>
                </mxCell>
                <mxCell id="753" value="NO" style="edgeLabel;html=1;align=center;verticalAlign=middle;resizable=0;points=[];fontColor=#000000;labelBackgroundColor=#FFFFFF;" vertex="1" connectable="0" parent="752">
                    <mxGeometry x="-0.9129" relative="1" as="geometry">
                        <mxPoint as="offset"/>
                    </mxGeometry>
                </mxCell>
                <mxCell id="754" value="n&amp;gt;1" style="rhombus;whiteSpace=wrap;html=1;rounded=0;fontSize=11;fillColor=#FFFFFF;strokeColor=#000000;fontColor=#000000;labelBackgroundColor=none;endArrow=classic;" vertex="1" parent="1">
                    <mxGeometry x="770" y="810" width="120" height="40" as="geometry"/>
                </mxCell>
                <mxCell id="755" value="" style="edgeStyle=orthogonalEdgeStyle;rounded=0;orthogonalLoop=1;jettySize=auto;html=1;endArrow=classic;endFill=1;fillColor=#FFFFFF;strokeColor=#000000;fontColor=#000000;labelBackgroundColor=none;" edge="1" parent="1" source="756" target="758">
                    <mxGeometry relative="1" as="geometry"/>
                </mxCell>
                <mxCell id="756" value="sumLine = jEnd - jStart - (n-1)" style="whiteSpace=wrap;html=1;rounded=0;fontSize=11;fillColor=#FFFFFF;strokeColor=#000000;fontColor=#000000;labelBackgroundColor=none;endArrow=classic;" vertex="1" parent="1">
                    <mxGeometry x="740" y="890" width="180" height="40" as="geometry"/>
                </mxCell>
                <mxCell id="757" style="edgeStyle=orthogonalEdgeStyle;rounded=0;orthogonalLoop=1;jettySize=auto;html=1;exitX=0.5;exitY=1;exitDx=0;exitDy=0;endArrow=classic;endFill=1;entryX=0;entryY=0.5;entryDx=0;entryDy=0;fillColor=#FFFFFF;strokeColor=#000000;fontColor=#000000;labelBackgroundColor=none;" edge="1" parent="1" source="758" target="729">
                    <mxGeometry relative="1" as="geometry">
                        <mxPoint x="600" y="590" as="targetPoint"/>
                        <Array as="points">
                            <mxPoint x="830" y="1030"/>
                            <mxPoint x="630" y="1030"/>
                            <mxPoint x="630" y="321"/>
                        </Array>
                    </mxGeometry>
                </mxCell>
                <mxCell id="758" value="sumTotal = sumTotal + sumLine" style="whiteSpace=wrap;html=1;rounded=0;fontSize=11;fillColor=#FFFFFF;strokeColor=#000000;fontColor=#000000;labelBackgroundColor=none;endArrow=classic;" vertex="1" parent="1">
                    <mxGeometry x="740" y="970" width="180" height="40" as="geometry"/>
                </mxCell>
                <mxCell id="759" value="" style="edgeStyle=orthogonalEdgeStyle;rounded=0;orthogonalLoop=1;jettySize=auto;html=1;endArrow=classic;endFill=1;fillColor=#FFFFFF;strokeColor=#000000;fontColor=#000000;labelBackgroundColor=none;" edge="1" parent="1" source="760" target="761">
                    <mxGeometry relative="1" as="geometry"/>
                </mxCell>
                <mxCell id="760" value="sumTotal" style="shape=parallelogram;perimeter=parallelogramPerimeter;whiteSpace=wrap;html=1;fixedSize=1;fillColor=#FFFFCC;fontSize=11;strokeColor=#000000;fontColor=#000000;rounded=0;labelBackgroundColor=none;endArrow=classic;" vertex="1" parent="1">
                    <mxGeometry x="920" y="350" width="120" height="30" as="geometry"/>
                </mxCell>
                <mxCell id="761" value="end" style="ellipse;whiteSpace=wrap;html=1;fillColor=#FFCCCC;fontSize=11;strokeColor=#000000;fontColor=#000000;rounded=0;labelBackgroundColor=none;endArrow=classic;" vertex="1" parent="1">
                    <mxGeometry x="940" y="410" width="80" height="40" as="geometry"/>
                </mxCell>
                <mxCell id="762" value="&lt;div&gt;Вычислить объем воды в произвольном массиве-городе, см. картинку ниже.&amp;nbsp; &amp;nbsp;&lt;/div&gt;" style="rounded=0;whiteSpace=wrap;html=1;fillColor=#CCCCCC;fontSize=11;strokeColor=#000000;fontColor=#000000;labelBackgroundColor=none;endArrow=classic;" vertex="1" parent="1">
                    <mxGeometry x="40" y="10" width="540" height="30" as="geometry"/>
                </mxCell>
            </root>
        </mxGraphModel>
    </diagram>
</mxfile>